<?xml version="1.0" encoding="UTF-8"?>
<svg width="326px" height="161px" viewBox="0 0 326 161" version="1.1" xmlns="http://www.w3.org/2000/svg" xmlns:xlink="http://www.w3.org/1999/xlink">
    <!-- Generator: Sketch 51.2 (57519) - http://www.bohemiancoding.com/sketch -->
    <title>Light BG</title>
    <desc>Created with Sketch.</desc>
    <defs></defs>
    <g id="Page-1" stroke="none" stroke-width="1" fill="none" fill-rule="evenodd">
        <g id="Light-BG">
            <g id="Group" stroke="#E75326">
                <polyline id="Path-2" stroke-width="13" stroke-linecap="round" points="53.84375 142.277344 23.1367188 68.6445312 59.8789063 75.84375 94.3691406 27.8730469 125.496094 75.84375 162.570312 69 153.882812 91.0761719"></polyline>
                <circle id="Oval" stroke-width="12" fill="#FFFFFF" cx="94.1381836" cy="19.3276367" r="13.2739258"></circle>
                <circle id="Oval" stroke-width="12" fill="#FFFFFF" cx="19.2856445" cy="64.9291992" r="13.2739258"></circle>
                <circle id="Oval" stroke-width="12" fill="#FFFFFF" cx="167.285645" cy="64.9291992" r="13.2739258"></circle>
            </g>
            <path d="M99.75,113.82 C101.08,113.82 102.34,114.03 103.11,114.31 C100.17,126.14 94.5,138.46 89.88,147 C89.04,147.21 88.06,147.28 87.29,147.28 C86.45,147.28 85.47,147.21 84.63,147 C78.96,136.99 74.76,126.14 71.26,114.31 C72.17,114.03 73.5,113.82 74.9,113.82 C75.74,113.82 76.44,113.89 77.14,114.03 C80.29,124.53 84.14,133.91 87.22,140.35 L87.57,141.12 C87.64,140.84 87.78,140.63 87.92,140.35 C91.42,132.65 94.57,124.46 97.51,114.03 C98.21,113.89 98.98,113.82 99.75,113.82 Z M114.77,108.29 C112.53,108.29 110.71,106.54 110.71,104.3 C110.71,102.06 112.46,100.31 114.77,100.31 C116.94,100.31 118.69,102.06 118.69,104.3 C118.69,106.54 116.94,108.29 114.77,108.29 Z M114.77,147.28 C113.86,147.28 112.88,147.21 111.9,147 L111.9,113.96 C112.88,113.75 113.86,113.68 114.77,113.68 C115.68,113.68 116.66,113.75 117.57,113.96 L117.57,147 C116.66,147.21 115.68,147.28 114.77,147.28 Z M143.72,113.05 C153.59,113.05 161.08,119.21 161.08,130.34 C161.08,141.68 152.75,147.91 144.07,147.91 C140.92,147.91 138.26,147.56 135.67,146.58 L135.67,160.02 C134.76,160.23 133.78,160.3 132.87,160.3 C131.96,160.3 131.05,160.23 130.07,160.02 L130,118.09 C132.94,115.57 137.98,113.05 143.72,113.05 Z M143.72,142.66 C150.72,142.66 155.34,137.97 155.34,130.34 C155.34,123.06 150.65,118.44 143.72,118.44 C140.71,118.44 137.84,119.28 135.6,120.68 L135.67,140.84 C137.63,141.96 140.36,142.66 143.72,142.66 Z M186.39,113.05 C196.68,113.05 201.16,119.35 201.16,126.49 L201.16,147 C200.25,147.21 199.2,147.28 198.29,147.28 C197.38,147.28 196.47,147.21 195.49,147 L195.49,128.45 C195.49,121.24 192.2,118.3 185.83,118.3 C182.12,118.3 178.83,119.49 176.94,120.61 L176.94,147 C176.03,147.21 174.98,147.28 174.07,147.28 C173.16,147.28 172.25,147.21 171.27,147 L171.27,118.09 C174.49,115.43 180.16,113.05 186.39,113.05 Z M227.94,147.91 C218.07,147.91 211.14,140.35 211.14,130.48 C211.14,120.61 218.49,112.98 228.36,112.98 C238.23,112.98 245.16,120.61 245.16,130.48 C245.16,140.35 237.81,147.91 227.94,147.91 Z M228.15,142.66 C235.08,142.66 239.42,137.62 239.42,130.48 C239.42,123.34 235.08,118.23 228.15,118.23 C221.22,118.23 216.88,123.34 216.88,130.48 C216.88,137.62 221.22,142.66 228.15,142.66 Z M281.6,100.73 C282.51,100.73 283.49,100.8 284.47,101.01 L284.47,144.69 C281.18,146.51 275.79,147.98 270.75,147.98 C260.95,147.98 253.39,141.82 253.39,130.76 C253.39,119.91 261.37,113.12 270.96,113.12 C274.39,113.12 276.7,113.61 278.87,114.66 L278.87,101.01 C279.78,100.8 280.69,100.73 281.6,100.73 Z M270.75,142.8 C273.69,142.87 276.35,142.45 278.87,141.4 L278.87,120.26 C276.63,118.79 274.11,118.37 270.96,118.37 C264.1,118.37 259.13,123.13 259.13,130.62 C259.13,138.18 263.82,142.8 270.75,142.8 Z M325.39,127.68 C325.39,129.43 325.32,130.27 325.11,132.16 L300.61,132.16 C301.03,138.25 305.23,142.8 311.25,142.8 C316.71,142.8 319.23,140.77 321.05,139.37 C322.45,140.07 323.78,141.75 324.13,143.22 C321.47,145.46 317.34,147.98 311.18,147.98 C301.52,147.98 294.73,141.19 294.73,130.62 C294.73,120.4 301.73,113.05 310.69,113.05 C319.16,113.05 325.39,119.14 325.39,127.68 Z M300.68,127.47 L319.51,127.47 C319.51,122.99 317.13,118.09 310.69,118.09 C304.95,118.09 301.31,122.36 300.68,127.47 Z" id="vipnode" fill="#0C2643"></path>
        </g>
    </g>
</svg>