<?xml version="1.0" encoding="UTF-8"?>
<svg width="327px" height="161px" viewBox="0 0 327 161" version="1.1" xmlns="http://www.w3.org/2000/svg" xmlns:xlink="http://www.w3.org/1999/xlink">
    <!-- Generator: Sketch 51.2 (57519) - http://www.bohemiancoding.com/sketch -->
    <title>Light BG</title>
    <desc>Created with Sketch.</desc>
    <defs></defs>
    <g id="Page-1" stroke="none" stroke-width="1" fill="none" fill-rule="evenodd">
        <g id="Light-BG">
            <path d="M100.75,113.82 C102.08,113.82 103.34,114.03 104.11,114.31 C101.17,126.14 95.5,138.46 90.88,147 C90.04,147.21 89.06,147.28 88.29,147.28 C87.45,147.28 86.47,147.21 85.63,147 C79.96,136.99 75.76,126.14 72.26,114.31 C73.17,114.03 74.5,113.82 75.9,113.82 C76.74,113.82 77.44,113.89 78.14,114.03 C81.29,124.53 85.14,133.91 88.22,140.35 L88.57,141.12 C88.64,140.84 88.78,140.63 88.92,140.35 C92.42,132.65 95.57,124.46 98.51,114.03 C99.21,113.89 99.98,113.82 100.75,113.82 Z M115.77,108.29 C113.53,108.29 111.71,106.54 111.71,104.3 C111.71,102.06 113.46,100.31 115.77,100.31 C117.94,100.31 119.69,102.06 119.69,104.3 C119.69,106.54 117.94,108.29 115.77,108.29 Z M115.77,147.28 C114.86,147.28 113.88,147.21 112.9,147 L112.9,113.96 C113.88,113.75 114.86,113.68 115.77,113.68 C116.68,113.68 117.66,113.75 118.57,113.96 L118.57,147 C117.66,147.21 116.68,147.28 115.77,147.28 Z M144.72,113.05 C154.59,113.05 162.08,119.21 162.08,130.34 C162.08,141.68 153.75,147.91 145.07,147.91 C141.92,147.91 139.26,147.56 136.67,146.58 L136.67,160.02 C135.76,160.23 134.78,160.3 133.87,160.3 C132.96,160.3 132.05,160.23 131.07,160.02 L131,118.09 C133.94,115.57 138.98,113.05 144.72,113.05 Z M144.72,142.66 C151.72,142.66 156.34,137.97 156.34,130.34 C156.34,123.06 151.65,118.44 144.72,118.44 C141.71,118.44 138.84,119.28 136.6,120.68 L136.67,140.84 C138.63,141.96 141.36,142.66 144.72,142.66 Z M187.39,113.05 C197.68,113.05 202.16,119.35 202.16,126.49 L202.16,147 C201.25,147.21 200.2,147.28 199.29,147.28 C198.38,147.28 197.47,147.21 196.49,147 L196.49,128.45 C196.49,121.24 193.2,118.3 186.83,118.3 C183.12,118.3 179.83,119.49 177.94,120.61 L177.94,147 C177.03,147.21 175.98,147.28 175.07,147.28 C174.16,147.28 173.25,147.21 172.27,147 L172.27,118.09 C175.49,115.43 181.16,113.05 187.39,113.05 Z M228.94,147.91 C219.07,147.91 212.14,140.35 212.14,130.48 C212.14,120.61 219.49,112.98 229.36,112.98 C239.23,112.98 246.16,120.61 246.16,130.48 C246.16,140.35 238.81,147.91 228.94,147.91 Z M229.15,142.66 C236.08,142.66 240.42,137.62 240.42,130.48 C240.42,123.34 236.08,118.23 229.15,118.23 C222.22,118.23 217.88,123.34 217.88,130.48 C217.88,137.62 222.22,142.66 229.15,142.66 Z M282.6,100.73 C283.51,100.73 284.49,100.8 285.47,101.01 L285.47,144.69 C282.18,146.51 276.79,147.98 271.75,147.98 C261.95,147.98 254.39,141.82 254.39,130.76 C254.39,119.91 262.37,113.12 271.96,113.12 C275.39,113.12 277.7,113.61 279.87,114.66 L279.87,101.01 C280.78,100.8 281.69,100.73 282.6,100.73 Z M271.75,142.8 C274.69,142.87 277.35,142.45 279.87,141.4 L279.87,120.26 C277.63,118.79 275.11,118.37 271.96,118.37 C265.1,118.37 260.13,123.13 260.13,130.62 C260.13,138.18 264.82,142.8 271.75,142.8 Z M326.39,127.68 C326.39,129.43 326.32,130.27 326.11,132.16 L301.61,132.16 C302.03,138.25 306.23,142.8 312.25,142.8 C317.71,142.8 320.23,140.77 322.05,139.37 C323.45,140.07 324.78,141.75 325.13,143.22 C322.47,145.46 318.34,147.98 312.18,147.98 C302.52,147.98 295.73,141.19 295.73,130.62 C295.73,120.4 302.73,113.05 311.69,113.05 C320.16,113.05 326.39,119.14 326.39,127.68 Z M301.68,127.47 L320.51,127.47 C320.51,122.99 318.13,118.09 311.69,118.09 C305.95,118.09 302.31,122.36 301.68,127.47 Z" id="vipnode" fill="#0C2643"></path>
            <g id="Group" fill="#E75326" fill-rule="nonzero">
                <path d="M149.012278,65.0775358 C149.011905,65.0281343 149.011719,64.9786885 149.011719,64.9291992 C149.011719,54.2845039 157.640949,45.6552734 168.285645,45.6552734 C178.93034,45.6552734 187.55957,54.2845039 187.55957,64.9291992 C187.55957,75.5738945 178.93034,84.203125 168.285645,84.203125 C167.061581,84.203125 165.864169,84.0890177 164.703464,83.8708599 L160.931324,93.4564053 C159.616757,96.7969058 155.84308,98.4392498 152.502579,97.1246832 C149.162079,95.8101166 147.519735,92.036439 148.834301,88.6959385 L153.233075,77.5180303 L123.406617,83.0238731 L95.0939896,39.390414 L63.7218039,83.0243827 L34.8139891,77.3602212 L60.8429776,139.775491 C62.2247128,143.088773 60.6588849,146.894836 57.345603,148.276571 C54.032321,149.658307 50.2262576,148.092479 48.8445224,144.779197 L23.3990775,83.7632144 C22.0736685,84.0513455 20.6973815,84.203125 19.2856445,84.203125 C8.64094925,84.203125 0.01171875,75.5738945 0.01171875,64.9291992 C0.01171875,54.2845039 8.64094925,45.6552734 19.2856445,45.6552734 C29.9028914,45.6552734 38.5150543,54.2400587 38.5593983,64.8468944 L58.0360086,68.6631173 L82.9863337,33.960986 C78.8666867,30.4261359 76.2568359,25.181668 76.2568359,19.3276367 C76.2568359,8.68294144 84.8860664,0.0537109375 95.5307617,0.0537109375 C106.175457,0.0537109375 114.804687,8.68294144 114.804687,19.3276367 C114.804687,25.4872263 111.915278,30.971958 107.417916,34.5003738 L129.585571,68.6636269 L149.012278,65.0775358 Z M19.2856445,72.203125 C23.3029228,72.203125 26.5595703,68.9464775 26.5595703,64.9291992 C26.5595703,60.9119209 23.3029228,57.6552734 19.2856445,57.6552734 C15.2683663,57.6552734 12.0117187,60.9119209 12.0117187,64.9291992 C12.0117187,68.9464775 15.2683663,72.203125 19.2856445,72.203125 Z M95.5307617,26.6015625 C99.54804,26.6015625 102.804687,23.344915 102.804687,19.3276367 C102.804687,15.3103584 99.54804,12.0537109 95.5307617,12.0537109 C91.5134834,12.0537109 88.2568359,15.3103584 88.2568359,19.3276367 C88.2568359,23.344915 91.5134834,26.6015625 95.5307617,26.6015625 Z M168.285645,72.203125 C172.302923,72.203125 175.55957,68.9464775 175.55957,64.9291992 C175.55957,60.9119209 172.302923,57.6552734 168.285645,57.6552734 C164.268366,57.6552734 161.011719,60.9119209 161.011719,64.9291992 C161.011719,68.9464775 164.268366,72.203125 168.285645,72.203125 Z" id="Combined-Shape"></path>
            </g>
        </g>
    </g>
</svg>